<?xml version="1.0" standalone="no"?>
<!DOCTYPE svg PUBLIC "-//W3C//DTD SVG 20010904//EN"
 "http://www.w3.org/TR/2001/REC-SVG-20010904/DTD/svg10.dtd">
<svg version="1.0" xmlns="http://www.w3.org/2000/svg"
 width="260.000000pt" height="260.000000pt" viewBox="0 0 260.000000 260.000000"
 preserveAspectRatio="xMidYMid meet">
<metadata>
Created by potrace 1.11, written by Peter Selinger 2001-2013
</metadata>
<g transform="translate(0.000000,260.000000) scale(0.100000,-0.100000)"
fill="#000000" stroke="none">
<path d="M1553 2545 c-64 -28 -150 -191 -168 -321 -8 -51 -50 -172 -67 -189
-7 -7 -8 24 -4 90 12 174 -18 347 -69 395 -21 20 -28 21 -52 12 -15 -6 -50
-14 -78 -18 -27 -3 -60 -12 -71 -20 -66 -41 -89 -167 -60 -332 9 -52 14 -98
10 -103 -8 -14 -24 -1 -24 20 0 48 -187 381 -214 381 -19 0 -56 -30 -56 -45 0
-7 -17 -28 -38 -47 -21 -18 -53 -52 -71 -75 -32 -40 -33 -45 -29 -115 3 -59
10 -88 41 -152 36 -75 139 -228 182 -268 74 -70 139 -119 153 -116 20 4 62 75
62 106 0 25 -21 29 -40 7 -22 -26 -31 -5 -10 23 17 24 19 34 11 83 -8 50 -54
138 -81 154 -11 7 -2 35 11 35 5 0 19 -20 31 -44 11 -24 32 -49 45 -55 16 -8
23 -19 23 -39 0 -16 8 -40 19 -53 10 -13 22 -35 26 -49 13 -44 35 -60 80 -60
29 0 45 5 49 15 3 8 15 15 26 15 34 0 69 47 76 101 4 27 12 57 20 66 12 17 13
17 20 0 4 -10 1 -43 -6 -73 -9 -36 -10 -64 -4 -86 8 -28 15 -33 44 -36 19 -2
38 -8 41 -14 11 -17 49 1 49 23 0 27 44 101 70 117 17 11 20 10 20 -6 0 -10
-13 -38 -29 -63 -43 -65 -47 -91 -20 -128 17 -23 31 -31 54 -31 17 0 36 5 43
12 6 6 15 8 19 4 4 -4 -7 -20 -26 -35 -51 -42 -21 -71 34 -35 29 19 34 2 5
-19 -37 -26 -50 -97 -17 -97 20 0 107 50 107 61 0 5 8 9 18 9 10 0 23 5 30 12
6 6 15 8 19 5 10 -11 -21 -38 -69 -62 -61 -29 -63 -48 -4 -44 25 2 46 1 46 -3
0 -13 -38 -28 -72 -28 -42 0 -69 -16 -49 -29 11 -7 9 -13 -9 -31 -39 -39 -12
-46 87 -22 63 16 100 20 131 14 66 -11 54 -24 -25 -26 -48 -2 -80 -8 -98 -20
-26 -17 -26 -18 -8 -38 18 -21 18 -21 -12 -13 -94 26 -130 -8 -48 -45 65 -30
244 -76 318 -84 33 -3 87 -15 120 -26 70 -24 311 -60 402 -60 81 0 98 16 108
99 7 57 5 65 -21 102 -40 58 -90 98 -162 131 -53 24 -84 30 -190 38 -70 5
-160 10 -199 10 -132 0 -98 18 190 100 98 27 198 50 223 50 37 0 44 3 44 20 0
11 -5 28 -10 38 -6 9 -19 38 -29 63 -15 37 -32 55 -78 85 l-58 39 -100 -1
c-124 -1 -246 -38 -379 -114 -48 -28 -90 -49 -93 -46 -7 6 193 221 270 291 34
31 89 73 122 92 105 63 115 81 69 124 -14 13 -35 41 -45 62 -23 43 -66 73
-120 82 -51 9 -125 -26 -202 -94 -74 -65 -98 -94 -130 -156 -31 -59 -106 -147
-107 -124 0 8 27 61 60 117 33 55 60 105 60 110 0 5 14 29 32 53 66 91 109
254 76 287 -7 7 -24 12 -39 12 -15 0 -46 9 -70 20 -51 23 -92 25 -136 5z m312
-940 c-30 -25 -65 -33 -65 -15 0 13 50 39 75 39 17 0 16 -3 -10 -24z m-25 -99
c0 -16 -37 -46 -57 -46 -21 0 -15 28 9 44 28 20 48 20 48 2z m141 -136 c34
-19 23 -40 -20 -40 -42 0 -57 11 -47 35 6 17 39 19 67 5z"/>
<path d="M320 1861 c-59 -12 -147 -57 -179 -93 -17 -18 -31 -37 -31 -41 0 -4
-9 -27 -20 -49 -11 -23 -20 -49 -20 -58 0 -28 34 -50 76 -50 21 0 55 -5 74
-10 73 -22 218 -49 290 -54 77 -5 140 -22 140 -36 0 -4 -56 -5 -125 -2 -100 4
-136 2 -178 -11 -29 -10 -78 -22 -111 -28 -102 -19 -169 -98 -196 -232 -6 -32
-9 -64 -7 -71 7 -17 60 -8 182 29 80 24 113 28 302 35 195 7 214 9 250 30 21
13 39 24 40 24 1 1 -2 17 -6 35 l-7 35 -31 -31 c-26 -25 -44 -32 -108 -42 -42
-6 -81 -9 -86 -5 -19 11 2 22 54 29 65 8 97 23 97 46 0 22 -30 40 -56 34 -11
-2 -34 -7 -51 -11 -37 -7 -48 14 -12 23 15 4 19 11 15 28 -7 26 -10 26 123
-12 65 -18 76 -11 85 58 6 44 5 48 -21 66 -15 10 -46 27 -68 37 -47 22 -33 32
22 17 56 -16 73 -14 73 9 0 15 -7 20 -25 20 -27 0 -32 9 -13 28 15 15 -5 39
-34 44 -29 4 -35 28 -8 28 22 0 84 -56 106 -94 14 -26 34 -12 34 22 -1 21 -20
45 -90 106 -48 44 -110 91 -136 104 -81 41 -247 62 -344 43z m354 -171 c16
-15 -5 -32 -33 -25 -33 8 -45 20 -36 35 7 12 53 6 69 -10z m98 -258 c-25 -4
-55 15 -47 28 3 5 20 1 38 -8 30 -16 31 -17 9 -20z"/>
<path d="M1552 1202 c-26 -18 -9 -47 33 -56 22 -5 75 -25 117 -45 62 -29 77
-40 78 -58 0 -28 -21 -30 -38 -3 -7 11 -18 20 -25 20 -8 0 -36 11 -63 25 -62
32 -67 31 -81 -5 -6 -16 -16 -30 -22 -30 -6 0 -17 14 -26 30 -19 36 -34 37
-58 4 -18 -24 -18 -26 3 -81 11 -31 30 -67 40 -81 11 -13 20 -32 20 -41 0 -10
7 -26 15 -37 17 -23 19 -50 3 -60 -15 -10 -38 24 -38 58 0 15 -4 28 -9 28 -5
0 -16 19 -26 43 -21 52 -42 77 -67 77 -11 0 -22 9 -25 20 -10 38 -38 18 -56
-41 -8 -24 44 -345 68 -416 20 -62 178 -296 224 -333 80 -63 207 -79 240 -31
7 12 20 21 27 21 26 0 14 45 -47 175 -33 72 -71 157 -83 190 -13 33 -42 98
-65 144 -23 45 -40 85 -37 88 2 3 46 -31 96 -74 115 -98 177 -144 263 -195 59
-35 73 -40 112 -36 36 5 56 15 104 59 49 45 60 60 60 87 2 78 -50 154 -183
271 -118 103 -220 171 -332 222 -134 62 -196 78 -222 61z"/>
<path d="M790 1191 c-8 -5 -35 -12 -60 -16 -25 -3 -65 -12 -90 -20 -25 -8 -81
-19 -125 -24 -67 -9 -89 -17 -135 -50 -30 -21 -71 -46 -90 -56 -55 -29 -159
-134 -195 -200 -31 -56 -33 -64 -28 -130 9 -115 28 -122 97 -36 68 84 227 185
366 230 36 12 92 37 125 56 94 54 166 86 184 83 10 -2 -6 -18 -44 -43 -106
-69 -129 -91 -197 -191 -120 -175 -185 -373 -176 -533 7 -114 22 -143 83 -159
63 -17 75 -6 75 67 0 135 81 298 222 448 115 123 187 227 212 305 21 68 18 92
-12 96 -18 3 -22 -1 -22 -23 0 -30 -26 -85 -40 -85 -6 0 -8 11 -4 25 8 32 -17
34 -64 5 -18 -11 -35 -20 -37 -20 -13 0 -2 24 22 46 24 22 39 43 59 82 4 7 -3
22 -15 34 l-22 20 -48 -21 c-55 -23 -131 -38 -131 -25 0 20 69 63 113 69 49 8
56 19 37 56 -11 20 -35 24 -60 10z m8 -348 c-14 -16 -28 -36 -31 -45 -9 -25
-37 -23 -37 2 0 11 5 20 10 20 6 0 20 11 32 25 12 14 28 25 37 25 11 0 8 -8
-11 -27z m126 -15 c-3 -13 -7 -24 -8 -24 -9 -10 -46 -13 -46 -4 0 24 22 50 41
50 16 0 19 -4 13 -22z m-204 -96 c0 -21 -18 -42 -37 -42 -16 0 -17 32 -1 48
18 18 38 15 38 -6z"/>
<path d="M1085 963 c-69 -93 -135 -247 -171 -401 -63 -264 -36 -426 81 -482
56 -27 108 -19 113 18 5 30 14 28 34 -8 20 -35 29 -37 53 -11 13 16 19 48 25
143 5 68 18 173 29 233 44 232 50 307 36 425 -9 73 -19 100 -39 100 -14 0 -16
-9 -32 -142 -3 -32 -10 -58 -14 -58 -16 0 -17 25 -4 69 14 47 7 74 -21 85 -9
3 -16 16 -15 28 6 66 -26 66 -75 1z"/>
</g>
</svg>
